# Blender v2.80 (sub 75) OBJ File: ''
# www.blender.org
mtllib buttonTOP.mtl
o Cylinder.001
v -0.000682 1.145060 -1.188751
v -0.000682 2.265160 -1.162453
v 0.224313 1.145060 -1.167267
v 0.219336 2.265160 -1.141444
v 0.441176 1.145060 -1.103590
v 0.431402 2.265160 -1.079176
v 0.642069 1.145060 -1.000023
v 0.627851 2.265160 -0.977899
v 0.819731 1.145060 -0.860307
v 0.801584 2.265160 -0.841275
v 0.967741 1.145060 -0.689494
v 0.946320 2.265160 -0.674240
v 1.080750 1.145060 -0.493757
v 1.056829 2.265160 -0.482832
v 1.154674 1.145060 -0.280169
v 1.129117 2.265160 -0.273969
v 1.186839 1.145060 -0.056452
v 1.160572 2.265160 -0.055200
v 1.176085 1.145060 0.169310
v 1.150055 2.265160 0.165568
v 1.122800 1.145060 0.388958
v 1.097948 2.265160 0.380356
v 1.028908 1.145060 0.594551
v 1.006134 2.265160 0.581402
v 0.897805 1.145060 0.778660
v 0.877930 2.265160 0.761439
v 0.734228 1.145060 0.934631
v 0.717972 2.265160 0.913959
v 0.544089 1.145060 1.056825
v 0.532039 2.265160 1.033451
v 0.334261 1.145060 1.140828
v 0.326852 2.265160 1.115595
v 0.112327 1.145060 1.183602
v 0.109827 2.265160 1.157423
v -0.113691 1.145060 1.183602
v -0.111192 2.265160 1.157423
v -0.335625 1.145060 1.140827
v -0.328216 2.265160 1.115595
v -0.545453 1.145060 1.056825
v -0.533403 2.265160 1.033450
v -0.735592 1.145060 0.934630
v -0.719336 2.265160 0.913959
v -0.899169 1.145060 0.778659
v -0.879295 2.265160 0.761438
v -1.030272 1.145060 0.594550
v -1.007498 2.265160 0.581402
v -1.124163 1.145060 0.388957
v -1.099312 2.265160 0.380356
v -1.177449 1.145060 0.169310
v -1.151419 2.265160 0.165567
v -1.188203 1.145060 -0.056453
v -1.161935 2.265160 -0.055201
v -1.156037 1.145060 -0.280170
v -1.130481 2.265160 -0.273970
v -1.082114 1.145060 -0.493758
v -1.058193 2.265160 -0.482833
v -0.969104 1.145060 -0.689495
v -0.947683 2.265160 -0.674241
v -0.821094 1.145060 -0.860308
v -0.802946 2.265160 -0.841276
v -0.643431 1.145060 -1.000023
v -0.629214 2.265160 -0.977900
v -0.442538 1.145060 -1.103591
v -0.432764 2.265160 -1.079177
v -0.225675 1.145060 -1.167267
v -0.220698 2.265160 -1.141445
v -0.211084 2.599861 -1.091563
v -0.413884 2.599861 -1.032015
v -0.601749 2.599861 -0.935164
v -0.767890 2.599861 -0.804510
v -0.906303 2.599861 -0.644774
v -1.011983 2.599861 -0.461730
v -1.081113 2.599861 -0.261994
v -1.111193 2.599861 -0.052784
v -1.101136 2.599861 0.158338
v -1.051306 2.599861 0.363741
v -0.963504 2.599861 0.556002
v -0.840902 2.599861 0.728171
v -0.687933 2.599861 0.874027
v -0.510125 2.599861 0.988298
v -0.313904 2.599861 1.066853
v -0.106363 2.599861 1.106853
v 0.104998 2.599861 1.106853
v 0.312540 2.599861 1.066853
v 0.508761 2.599861 0.988298
v 0.686569 2.599861 0.874028
v 0.839538 2.599861 0.728172
v 0.962139 2.599861 0.556002
v 1.049942 2.599861 0.363741
v 1.099772 2.599861 0.158338
v 1.109829 2.599861 -0.052783
v 1.079749 2.599861 -0.261993
v 1.010620 2.599861 -0.461729
v 0.904939 2.599861 -0.644773
v 0.766527 2.599861 -0.804509
v 0.600387 2.599861 -0.935164
v 0.412521 2.599861 -1.032015
v -0.000682 2.599861 -1.111653
v 0.209722 2.599861 -1.091562
v -0.000682 2.865220 -0.907558
v -0.172459 2.865220 -0.891156
v -0.338030 2.865220 -0.842540
v -0.491407 2.865220 -0.763468
v -0.627049 2.865220 -0.656799
v -0.740052 2.865220 -0.526387
v -0.826332 2.865220 -0.376946
v -0.882771 2.865220 -0.213876
v -0.907329 2.865220 -0.043073
v -0.899118 2.865220 0.129292
v -0.858436 2.865220 0.296988
v -0.786752 2.865220 0.453954
v -0.686658 2.865220 0.594517
v -0.561770 2.865220 0.713598
v -0.416603 2.865220 0.806891
v -0.256404 2.865220 0.871025
v -0.086962 2.865220 0.903682
v 0.085598 2.865220 0.903682
v 0.255040 2.865220 0.871025
v 0.415239 2.865220 0.806891
v 0.560406 2.865220 0.713598
v 0.685293 2.865220 0.594518
v 0.785388 2.865220 0.453954
v 0.857072 2.865220 0.296988
v 0.897755 2.865220 0.129293
v 0.905965 2.865220 -0.043072
v 0.881407 2.865220 -0.213876
v 0.824969 2.865220 -0.376945
v 0.738689 2.865220 -0.526386
v 0.625686 2.865220 -0.656798
v 0.490044 2.865220 -0.763468
v 0.336667 2.865220 -0.842539
v 0.171097 2.865220 -0.891155
v -0.000682 3.029774 -0.590258
v -0.112410 3.029774 -0.579590
v -0.220102 3.029774 -0.547969
v -0.319862 3.029774 -0.496539
v -0.408087 3.029774 -0.427158
v -0.481587 3.029774 -0.342335
v -0.537706 3.029774 -0.245134
v -0.574416 3.029774 -0.139070
v -0.590389 3.029774 -0.027975
v -0.585048 3.029774 0.084136
v -0.558587 3.029774 0.193209
v -0.511962 3.029774 0.295304
v -0.446858 3.029774 0.386730
v -0.365628 3.029774 0.464183
v -0.271208 3.029774 0.524863
v -0.167010 3.029774 0.566578
v -0.056801 3.029774 0.587819
v 0.055437 3.029774 0.587819
v 0.165646 3.029774 0.566578
v 0.269844 3.029774 0.524864
v 0.364264 3.029774 0.464183
v 0.445494 3.029774 0.386731
v 0.510598 3.029774 0.295305
v 0.557223 3.029774 0.193210
v 0.583684 3.029774 0.084136
v 0.589025 3.029774 -0.027974
v 0.573052 3.029774 -0.139069
v 0.536343 3.029774 -0.245134
v 0.480224 3.029774 -0.342334
v 0.406724 3.029774 -0.427158
v 0.318499 3.029774 -0.496538
v 0.218739 3.029774 -0.547969
v 0.111048 3.029774 -0.579590
v -0.000682 3.069983 -0.293036
v -0.056161 3.069983 -0.287738
v -0.109635 3.069983 -0.272037
v -0.159172 3.069983 -0.246499
v -0.202980 3.069983 -0.212048
v -0.239477 3.069983 -0.169929
v -0.267343 3.069983 -0.121663
v -0.285571 3.069983 -0.068997
v -0.293502 3.069983 -0.013832
v -0.290851 3.069983 0.041837
v -0.277712 3.069983 0.095998
v -0.254560 3.069983 0.146693
v -0.222232 3.069983 0.192091
v -0.181897 3.069983 0.230550
v -0.135012 3.069983 0.260681
v -0.083273 3.069983 0.281395
v -0.028548 3.069983 0.291942
v 0.027184 3.069983 0.291942
v 0.081909 3.069983 0.281395
v 0.133649 3.069983 0.260682
v 0.180533 3.069983 0.230551
v 0.220868 3.069983 0.192091
v 0.253196 3.069983 0.146693
v 0.276348 3.069983 0.095998
v 0.289487 3.069983 0.041837
v 0.292139 3.069983 -0.013832
v 0.284207 3.069983 -0.068996
v 0.265979 3.069983 -0.121663
v 0.238113 3.069983 -0.169928
v 0.201617 3.069983 -0.212048
v 0.157808 3.069983 -0.246499
v 0.108272 3.069983 -0.272037
v 0.054798 3.069983 -0.287738
vt 0.576628 0.896884
vt 0.576666 0.911848
vt 0.575666 0.911810
vt 0.575605 0.896846
vt 0.574608 0.911793
vt 0.574524 0.896829
vt 0.573531 0.911799
vt 0.573422 0.896835
vt 0.572474 0.911827
vt 0.572341 0.896863
vt 0.571474 0.911876
vt 0.571318 0.896913
vt 0.570568 0.911944
vt 0.570392 0.896983
vt 0.578353 0.922243
vt 0.578529 0.907282
vt 0.579435 0.907350
vt 0.579279 0.922312
vt 0.580435 0.907398
vt 0.580302 0.922362
vt 0.581492 0.907426
vt 0.581383 0.922391
vt 0.582569 0.907432
vt 0.582485 0.922397
vt 0.583627 0.907416
vt 0.583566 0.922380
vt 0.584627 0.907378
vt 0.584589 0.922342
vt 0.585534 0.907320
vt 0.585516 0.922282
vt 0.586314 0.907244
vt 0.586314 0.922204
vt 0.553673 0.922193
vt 0.553770 0.907233
vt 0.554549 0.907313
vt 0.554470 0.922275
vt 0.555456 0.907376
vt 0.555397 0.922339
vt 0.556456 0.907419
vt 0.556420 0.922384
vt 0.557513 0.907441
vt 0.557501 0.922406
vt 0.558590 0.907441
vt 0.558603 0.922406
vt 0.559648 0.907419
vt 0.559684 0.922384
vt 0.560648 0.907376
vt 0.560707 0.922339
vt 0.561554 0.907313
vt 0.561634 0.922275
vt 0.562334 0.907233
vt 0.562431 0.922193
vt 0.570392 0.897021
vt 0.570392 0.911982
vt 0.569612 0.911906
vt 0.569594 0.896944
vt 0.568705 0.911847
vt 0.568667 0.896884
vt 0.567705 0.911810
vt 0.567644 0.896846
vt 0.566647 0.911793
vt 0.566562 0.896829
vt 0.565570 0.911799
vt 0.565461 0.896835
vt 0.564512 0.911827
vt 0.564379 0.896863
vt 0.563513 0.911876
vt 0.563357 0.896913
vt 0.562607 0.911944
vt 0.562431 0.896983
vt 0.553957 0.902747
vt 0.554702 0.902824
vt 0.578353 0.897021
vt 0.578353 0.911982
vt 0.577573 0.911906
vt 0.577555 0.896944
vt 0.578353 0.927734
vt 0.578458 0.926723
vt 0.578768 0.925748
vt 0.579273 0.924845
vt 0.579954 0.924047
vt 0.580786 0.923382
vt 0.581740 0.922874
vt 0.582781 0.922541
vt 0.583872 0.922397
vt 0.584972 0.922445
vt 0.586042 0.922685
vt 0.587044 0.923107
vt 0.587942 0.923696
vt 0.588702 0.924431
vt 0.589297 0.925286
vt 0.589707 0.926229
vt 0.589915 0.927226
vt 0.589915 0.928242
vt 0.589707 0.929239
vt 0.589297 0.930182
vt 0.588702 0.931037
vt 0.587942 0.931772
vt 0.587044 0.932361
vt 0.586042 0.932783
vt 0.584972 0.933023
vt 0.583872 0.933071
vt 0.582781 0.932927
vt 0.581740 0.932594
vt 0.580786 0.932086
vt 0.579954 0.931421
vt 0.579273 0.930623
vt 0.578768 0.929720
vt 0.578458 0.928745
vt 0.571616 0.916367
vt 0.570750 0.916432
vt 0.566653 0.916288
vt 0.565623 0.916293
vt 0.557537 0.902947
vt 0.558567 0.902947
vt 0.581545 0.902932
vt 0.582575 0.902938
vt 0.578195 0.916468
vt 0.577449 0.916395
vt 0.576582 0.916339
vt 0.575625 0.916303
vt 0.561401 0.902824
vt 0.562147 0.902747
vt 0.585410 0.902831
vt 0.586156 0.902758
vt 0.572572 0.916320
vt 0.567664 0.916303
vt 0.556525 0.902926
vt 0.580533 0.902906
vt 0.563655 0.916367
vt 0.562789 0.916432
vt 0.560535 0.902885
vt 0.584543 0.902886
vt 0.573584 0.916293
vt 0.568621 0.916339
vt 0.555569 0.902885
vt 0.579577 0.902859
vt 0.564611 0.916320
vt 0.559578 0.902926
vt 0.583587 0.902923
vt 0.574614 0.916288
vt 0.569488 0.916395
vt 0.578711 0.902794
vt 0.584111 0.899246
vt 0.584819 0.899201
vt 0.570234 0.916468
vt 0.576150 0.919980
vt 0.576858 0.920025
vt 0.575917 0.922358
vt 0.575456 0.922329
vt 0.568189 0.919980
vt 0.567408 0.919950
vt 0.583330 0.899276
vt 0.568896 0.920025
vt 0.582504 0.899288
vt 0.569506 0.920084
vt 0.581663 0.899284
vt 0.560786 0.899198
vt 0.561395 0.899135
vt 0.580837 0.899262
vt 0.560079 0.899247
vt 0.580057 0.899224
vt 0.559298 0.899281
vt 0.579350 0.899171
vt 0.558472 0.899298
vt 0.572096 0.920002
vt 0.571389 0.920055
vt 0.557631 0.899298
vt 0.577467 0.920084
vt 0.572876 0.919964
vt 0.556806 0.899281
vt 0.564135 0.920002
vt 0.563427 0.920055
vt 0.573702 0.919942
vt 0.556025 0.899247
vt 0.564915 0.919964
vt 0.574543 0.919937
vt 0.555317 0.899198
vt 0.565741 0.919942
vt 0.575369 0.919950
vt 0.554709 0.899135
vt 0.566582 0.919937
vt 0.585428 0.899141
vt 0.565171 0.922397
vt 0.565718 0.922421
vt 0.565512 0.923743
vt 0.565240 0.923731
vt 0.572819 0.922343
vt 0.572360 0.922378
vt 0.557778 0.896935
vt 0.558325 0.896935
vt 0.576313 0.922397
vt 0.573327 0.922318
vt 0.557241 0.896924
vt 0.564858 0.922343
vt 0.564398 0.922378
vt 0.573864 0.922304
vt 0.556733 0.896902
vt 0.565366 0.922318
vt 0.574411 0.922301
vt 0.556273 0.896870
vt 0.565903 0.922304
vt 0.574948 0.922309
vt 0.555877 0.896829
vt 0.566450 0.922301
vt 0.583878 0.896868
vt 0.584274 0.896829
vt 0.566987 0.922309
vt 0.583417 0.896897
vt 0.567495 0.922329
vt 0.582909 0.896916
vt 0.567956 0.922358
vt 0.582372 0.896925
vt 0.568352 0.922397
vt 0.581825 0.896922
vt 0.559831 0.896870
vt 0.560226 0.896829
vt 0.581288 0.896907
vt 0.559370 0.896902
vt 0.580781 0.896883
vt 0.558863 0.896924
vt 0.580321 0.896848
vt 0.564715 0.923849
vt 0.564971 0.923767
vt 0.565775 0.923802
vt 0.566023 0.923906
vt 0.566244 0.924051
vt 0.566431 0.924233
vt 0.566578 0.924443
vt 0.566679 0.924676
vt 0.566730 0.924922
vt 0.566730 0.925172
vt 0.566679 0.925418
vt 0.566578 0.925651
vt 0.566431 0.925862
vt 0.566244 0.926043
vt 0.566023 0.926188
vt 0.565775 0.926292
vt 0.565512 0.926351
vt 0.565240 0.926363
vt 0.564971 0.926328
vt 0.564715 0.926246
vt 0.564479 0.926120
vt 0.564274 0.925956
vt 0.564106 0.925759
vt 0.563982 0.925537
vt 0.563905 0.925297
vt 0.563879 0.925047
vt 0.563905 0.924798
vt 0.563982 0.924558
vt 0.564106 0.924335
vt 0.564274 0.924138
vt 0.564479 0.923974
vt 0.562637 0.924061
vt 0.562888 0.923613
vt 0.566747 0.927345
vt 0.566249 0.927555
vt 0.566249 0.922540
vt 0.563226 0.923216
vt 0.565718 0.927674
vt 0.566747 0.922749
vt 0.563639 0.922886
vt 0.565171 0.927698
vt 0.567192 0.923042
vt 0.564113 0.922634
vt 0.564630 0.927626
vt 0.567570 0.923407
vt 0.564630 0.922469
vt 0.564113 0.927461
vt 0.567866 0.923831
vt 0.563639 0.927208
vt 0.568069 0.924300
vt 0.563226 0.926878
vt 0.568173 0.924795
vt 0.562888 0.926482
vt 0.568173 0.925299
vt 0.562637 0.926033
vt 0.568069 0.925795
vt 0.562483 0.925549
vt 0.567866 0.926263
vt 0.562431 0.925047
vt 0.567570 0.926687
vt 0.562483 0.924545
vt 0.567192 0.927052
vn 0.0950 0.0234 -0.9952
vn 0.2817 0.0234 -0.9592
vn 0.4581 0.0234 -0.8886
vn 0.6180 0.0234 -0.7858
vn 0.7555 0.0234 -0.6547
vn 0.8658 0.0234 -0.4999
vn 0.9447 0.0234 -0.3270
vn 0.9896 0.0234 -0.1423
vn 0.9986 0.0234 0.0476
vn 0.9715 0.0234 0.2357
vn 0.9094 0.0234 0.4153
vn 0.8144 0.0234 0.5799
vn 0.6899 0.0234 0.7235
vn 0.5405 0.0234 0.8410
vn 0.3716 0.0234 0.9281
vn 0.1892 0.0234 0.9817
vn 0.0000 0.0234 0.9997
vn -0.1892 0.0234 0.9817
vn -0.3716 0.0234 0.9281
vn -0.5405 0.0234 0.8410
vn -0.6899 0.0234 0.7235
vn -0.8144 0.0234 0.5799
vn -0.9094 0.0234 0.4153
vn -0.9715 0.0234 0.2357
vn -0.9986 0.0234 0.0476
vn -0.9896 0.0234 -0.1423
vn -0.9447 0.0234 -0.3270
vn -0.8658 0.0234 -0.4999
vn -0.7555 0.0234 -0.6547
vn -0.6180 0.0234 -0.7858
vn -0.4581 0.0234 -0.8886
vn 0.3675 0.1494 0.9179
vn -0.2817 0.0234 -0.9592
vn -0.0950 0.0234 -0.9952
vn 0.0000 -1.0000 0.0000
vn 0.8563 0.1494 -0.4944
vn -0.8563 0.1494 -0.4944
vn -0.3675 0.1494 0.9179
vn 0.9609 0.1494 0.2331
vn -0.2786 0.1494 -0.9487
vn 0.0940 0.1494 -0.9843
vn -0.8994 0.1494 0.4108
vn 0.5346 0.1494 0.8318
vn 0.7473 0.1494 -0.6475
vn -0.9344 0.1494 -0.3234
vn -0.1871 0.1494 0.9709
vn 0.9877 0.1494 0.0470
vn -0.4531 0.1494 -0.8789
vn -0.8054 0.1494 0.5735
vn 0.6823 0.1494 0.7156
vn 0.6112 0.1494 -0.7772
vn -0.9787 0.1494 -0.1407
vn 0.0000 0.1494 0.9888
vn 0.9787 0.1494 -0.1407
vn -0.6112 0.1494 -0.7772
vn -0.6823 0.1494 0.7156
vn 0.8054 0.1494 0.5735
vn 0.4531 0.1494 -0.8789
vn -0.9877 0.1494 0.0470
vn 0.1871 0.1494 0.9709
vn 0.9344 0.1494 -0.3234
vn -0.7473 0.1494 -0.6475
vn -0.5346 0.1494 0.8318
vn 0.8994 0.1494 0.4108
vn 0.2786 0.1494 -0.9487
vn 0.5479 0.6079 0.5746
vn -0.0940 0.1494 -0.9843
vn -0.9609 0.1494 0.2331
vn -0.0439 0.8869 -0.4599
vn -0.7859 0.6079 -0.1130
vn 0.6468 0.6079 0.4606
vn -0.7931 0.6079 0.0378
vn 0.7222 0.6079 0.3298
vn -0.7716 0.6079 0.1872
vn 0.7716 0.6079 0.1872
vn -0.7222 0.6079 0.3298
vn 0.7931 0.6079 0.0378
vn -0.6468 0.6079 0.4606
vn 0.7859 0.6079 -0.1130
vn -0.5479 0.6079 0.5746
vn 0.7503 0.6079 -0.2597
vn -0.4293 0.6079 0.6680
vn -0.0755 0.6079 -0.7904
vn 0.6876 0.6079 -0.3970
vn -0.2951 0.6079 0.7371
vn -0.2237 0.6079 -0.7618
vn 0.6001 0.6079 -0.5200
vn -0.1503 0.6079 0.7796
vn -0.3638 0.6079 -0.7057
vn 0.4908 0.6079 -0.6241
vn -0.0000 0.6079 0.7940
vn -0.4908 0.6079 -0.6241
vn 0.3638 0.6079 -0.7057
vn 0.1503 0.6079 0.7796
vn -0.6001 0.6079 -0.5200
vn 0.2237 0.6079 -0.7618
vn 0.2951 0.6079 0.7371
vn -0.6876 0.6079 -0.3970
vn 0.0755 0.6079 -0.7904
vn 0.4293 0.6079 0.6680
vn -0.7503 0.6079 -0.2597
vn -0.0379 0.9909 -0.1292
vn 0.4001 0.8869 -0.2310
vn -0.1717 0.8869 0.4289
vn -0.1302 0.8869 -0.4433
vn 0.3492 0.8869 -0.3026
vn -0.0874 0.8869 0.4537
vn -0.2117 0.8869 -0.4107
vn 0.2856 0.8869 -0.3632
vn -0.0000 0.8869 0.4620
vn -0.2856 0.8869 -0.3632
vn 0.2117 0.8869 -0.4107
vn 0.0874 0.8869 0.4537
vn -0.3492 0.8869 -0.3026
vn 0.1302 0.8869 -0.4433
vn 0.1717 0.8869 0.4289
vn -0.4001 0.8869 -0.2310
vn 0.0439 0.8869 -0.4599
vn 0.2498 0.8869 0.3887
vn -0.4366 0.8869 -0.1511
vn 0.3188 0.8869 0.3344
vn -0.4573 0.8869 -0.0658
vn 0.3764 0.8869 0.2680
vn -0.4615 0.8869 0.0220
vn 0.4203 0.8869 0.1919
vn -0.4490 0.8869 0.1089
vn 0.4490 0.8869 0.1089
vn -0.4203 0.8869 0.1919
vn 0.4615 0.8869 0.0220
vn -0.3764 0.8869 0.2680
vn 0.4573 0.8869 -0.0658
vn -0.3188 0.8869 0.3344
vn 0.4366 0.8869 -0.1511
vn -0.2498 0.8869 0.3887
vn 0.0000 1.0000 0.0000
vn 0.1018 0.9909 -0.0882
vn -0.0255 0.9909 0.1322
vn -0.0617 0.9909 -0.1197
vn 0.0832 0.9909 -0.1059
vn -0.0000 0.9909 0.1347
vn -0.0832 0.9909 -0.1059
vn 0.0617 0.9909 -0.1197
vn 0.0255 0.9909 0.1322
vn -0.1018 0.9909 -0.0882
vn 0.0379 0.9909 -0.1292
vn 0.0500 0.9909 0.1250
vn -0.1166 0.9909 -0.0673
vn 0.0128 0.9909 -0.1341
vn 0.0728 0.9909 0.1133
vn -0.1273 0.9909 -0.0440
vn 0.0929 0.9909 0.0975
vn -0.1333 0.9909 -0.0192
vn 0.1097 0.9909 0.0781
vn -0.1345 0.9909 0.0064
vn 0.1225 0.9909 0.0559
vn -0.1309 0.9909 0.0317
vn 0.1309 0.9909 0.0317
vn -0.1225 0.9909 0.0559
vn 0.1345 0.9909 0.0064
vn -0.1097 0.9909 0.0781
vn 0.1333 0.9909 -0.0192
vn -0.0929 0.9909 0.0975
vn 0.1273 0.9909 -0.0440
vn -0.0728 0.9909 0.1133
vn -0.0128 0.9909 -0.1341
vn 0.1166 0.9909 -0.0673
vn -0.0500 0.9909 0.1250
usemtl Material.001
s off
f 1/1/1 2/2/1 4/3/1 3/4/1
f 3/4/2 4/3/2 6/5/2 5/6/2
f 5/6/3 6/5/3 8/7/3 7/8/3
f 7/8/4 8/7/4 10/9/4 9/10/4
f 9/10/5 10/9/5 12/11/5 11/12/5
f 11/12/6 12/11/6 14/13/6 13/14/6
f 13/15/7 14/16/7 16/17/7 15/18/7
f 15/18/8 16/17/8 18/19/8 17/20/8
f 17/20/9 18/19/9 20/21/9 19/22/9
f 19/22/10 20/21/10 22/23/10 21/24/10
f 21/24/11 22/23/11 24/25/11 23/26/11
f 23/26/12 24/25/12 26/27/12 25/28/12
f 25/28/13 26/27/13 28/29/13 27/30/13
f 27/30/14 28/29/14 30/31/14 29/32/14
f 29/33/15 30/34/15 32/35/15 31/36/15
f 31/36/16 32/35/16 34/37/16 33/38/16
f 33/38/17 34/37/17 36/39/17 35/40/17
f 35/40/18 36/39/18 38/41/18 37/42/18
f 37/42/19 38/41/19 40/43/19 39/44/19
f 39/44/20 40/43/20 42/45/20 41/46/20
f 41/46/21 42/45/21 44/47/21 43/48/21
f 43/48/22 44/47/22 46/49/22 45/50/22
f 45/50/23 46/49/23 48/51/23 47/52/23
f 47/53/24 48/54/24 50/55/24 49/56/24
f 49/56/25 50/55/25 52/57/25 51/58/25
f 51/58/26 52/57/26 54/59/26 53/60/26
f 53/60/27 54/59/27 56/61/27 55/62/27
f 55/62/28 56/61/28 58/63/28 57/64/28
f 57/64/29 58/63/29 60/65/29 59/66/29
f 59/66/30 60/65/30 62/67/30 61/68/30
f 61/68/31 62/67/31 64/69/31 63/70/31
f 32/35/32 30/34/32 85/71/32 84/72/32
f 63/73/33 64/74/33 66/75/33 65/76/33
f 65/76/34 66/75/34 2/2/34 1/1/34
f 1/77/35 3/78/35 5/79/35 7/80/35 9/81/35 11/82/35 13/83/35 15/84/35 17/85/35 19/86/35 21/87/35 23/88/35 25/89/35 27/90/35 29/91/35 31/92/35 33/93/35 35/94/35 37/95/35 39/96/35 41/97/35 43/98/35 45/99/35 47/100/35 49/101/35 51/102/35 53/103/35 55/104/35 57/105/35 59/106/35 61/107/35 63/108/35 65/109/35
f 14/13/36 12/11/36 94/110/36 93/111/36
f 58/63/37 56/61/37 72/112/37 71/113/37
f 40/43/38 38/41/38 81/114/38 80/115/38
f 22/23/39 20/21/39 90/116/39 89/117/39
f 66/75/40 64/74/40 68/118/40 67/119/40
f 4/3/41 2/2/41 98/120/41 99/121/41
f 48/51/42 46/49/42 77/122/42 76/123/42
f 30/31/43 28/29/43 86/124/43 85/125/43
f 12/11/44 10/9/44 95/126/44 94/110/44
f 56/61/45 54/59/45 73/127/45 72/112/45
f 38/41/46 36/39/46 82/128/46 81/114/46
f 20/21/47 18/19/47 91/129/47 90/116/47
f 64/69/48 62/67/48 69/130/48 68/131/48
f 46/49/49 44/47/49 78/132/49 77/122/49
f 28/29/50 26/27/50 87/133/50 86/124/50
f 10/9/51 8/7/51 96/134/51 95/126/51
f 54/59/52 52/57/52 74/135/52 73/127/52
f 36/39/53 34/37/53 83/136/53 82/128/53
f 18/19/54 16/17/54 92/137/54 91/129/54
f 62/67/55 60/65/55 70/138/55 69/130/55
f 44/47/56 42/45/56 79/139/56 78/132/56
f 26/27/57 24/25/57 88/140/57 87/133/57
f 8/7/58 6/5/58 97/141/58 96/134/58
f 52/57/59 50/55/59 75/142/59 74/135/59
f 34/37/60 32/35/60 84/72/60 83/136/60
f 16/17/61 14/16/61 93/143/61 92/137/61
f 60/65/62 58/63/62 71/113/62 70/138/62
f 42/45/63 40/43/63 80/115/63 79/139/63
f 24/25/64 22/23/64 89/117/64 88/140/64
f 6/5/65 4/3/65 99/121/65 97/141/65
f 86/124/66 87/133/66 121/144/66 120/145/66
f 2/2/67 66/75/67 67/119/67 98/120/67
f 50/55/68 48/54/68 76/146/68 75/142/68
f 100/147/69 101/148/69 134/149/69 133/150/69
f 73/127/70 74/135/70 108/151/70 107/152/70
f 87/133/71 88/140/71 122/153/71 121/144/71
f 74/135/72 75/142/72 109/154/72 108/151/72
f 88/140/73 89/117/73 123/155/73 122/153/73
f 75/142/74 76/146/74 110/156/74 109/154/74
f 89/117/75 90/116/75 124/157/75 123/155/75
f 76/123/76 77/122/76 111/158/76 110/159/76
f 90/116/77 91/129/77 125/160/77 124/157/77
f 77/122/78 78/132/78 112/161/78 111/158/78
f 91/129/79 92/137/79 126/162/79 125/160/79
f 78/132/80 79/139/80 113/163/80 112/161/80
f 92/137/81 93/143/81 127/164/81 126/162/81
f 79/139/82 80/115/82 114/165/82 113/163/82
f 98/120/83 67/119/83 101/148/83 100/147/83
f 93/111/84 94/110/84 128/166/84 127/167/84
f 80/115/85 81/114/85 115/168/85 114/165/85
f 67/119/86 68/118/86 102/169/86 101/148/86
f 94/110/87 95/126/87 129/170/87 128/166/87
f 81/114/88 82/128/88 116/171/88 115/168/88
f 68/131/89 69/130/89 103/172/89 102/173/89
f 95/126/90 96/134/90 130/174/90 129/170/90
f 82/128/91 83/136/91 117/175/91 116/171/91
f 69/130/92 70/138/92 104/176/92 103/172/92
f 96/134/93 97/141/93 131/177/93 130/174/93
f 83/136/94 84/72/94 118/178/94 117/175/94
f 70/138/95 71/113/95 105/179/95 104/176/95
f 97/141/96 99/121/96 132/180/96 131/177/96
f 84/72/97 85/71/97 119/181/97 118/178/97
f 71/113/98 72/112/98 106/182/98 105/179/98
f 99/121/99 98/120/99 100/147/99 132/180/99
f 85/125/100 86/124/100 120/145/100 119/183/100
f 72/112/101 73/127/101 107/152/101 106/182/101
f 134/184/102 135/185/102 168/186/102 167/187/102
f 127/167/103 128/166/103 161/188/103 160/189/103
f 114/165/104 115/168/104 148/190/104 147/191/104
f 101/148/105 102/169/105 135/192/105 134/149/105
f 128/166/106 129/170/106 162/193/106 161/188/106
f 115/168/107 116/171/107 149/194/107 148/190/107
f 102/173/108 103/172/108 136/195/108 135/196/108
f 129/170/109 130/174/109 163/197/109 162/193/109
f 116/171/110 117/175/110 150/198/110 149/194/110
f 103/172/111 104/176/111 137/199/111 136/195/111
f 130/174/112 131/177/112 164/200/112 163/197/112
f 117/175/113 118/178/113 151/201/113 150/198/113
f 104/176/114 105/179/114 138/202/114 137/199/114
f 131/177/115 132/180/115 165/203/115 164/200/115
f 118/178/116 119/181/116 152/204/116 151/201/116
f 105/179/117 106/182/117 139/205/117 138/202/117
f 132/180/118 100/147/118 133/150/118 165/203/118
f 119/183/119 120/145/119 153/206/119 152/207/119
f 106/182/120 107/152/120 140/208/120 139/205/120
f 120/145/121 121/144/121 154/209/121 153/206/121
f 107/152/122 108/151/122 141/210/122 140/208/122
f 121/144/123 122/153/123 155/211/123 154/209/123
f 108/151/124 109/154/124 142/212/124 141/210/124
f 122/153/125 123/155/125 156/213/125 155/211/125
f 109/154/126 110/156/126 143/214/126 142/212/126
f 123/155/127 124/157/127 157/215/127 156/213/127
f 110/159/128 111/158/128 144/216/128 143/217/128
f 124/157/129 125/160/129 158/218/129 157/215/129
f 111/158/130 112/161/130 145/219/130 144/216/130
f 125/160/131 126/162/131 159/220/131 158/218/131
f 112/161/132 113/163/132 146/221/132 145/219/132
f 126/162/133 127/164/133 160/222/133 159/220/133
f 113/163/134 114/165/134 147/191/134 146/221/134
f 198/223/135 166/224/135 167/187/135 168/186/135 169/225/135 170/226/135 171/227/135 172/228/135 173/229/135 174/230/135 175/231/135 176/232/135 177/233/135 178/234/135 179/235/135 180/236/135 181/237/135 182/238/135 183/239/135 184/240/135 185/241/135 186/242/135 187/243/135 188/244/135 189/245/135 190/246/135 191/247/135 192/248/135 193/249/135 194/250/135 195/251/135 196/252/135 197/253/135
f 161/254/136 162/255/136 195/251/136 194/250/136
f 148/256/137 149/257/137 182/238/137 181/237/137
f 135/185/138 136/258/138 169/225/138 168/186/138
f 162/255/139 163/259/139 196/252/139 195/251/139
f 149/257/140 150/260/140 183/239/140 182/238/140
f 136/258/141 137/261/141 170/226/141 169/225/141
f 163/259/142 164/262/142 197/253/142 196/252/142
f 150/260/143 151/263/143 184/240/143 183/239/143
f 137/261/144 138/264/144 171/227/144 170/226/144
f 164/262/145 165/265/145 198/223/145 197/253/145
f 151/263/146 152/266/146 185/241/146 184/240/146
f 138/264/147 139/267/147 172/228/147 171/227/147
f 165/265/148 133/268/148 166/224/148 198/223/148
f 152/266/149 153/269/149 186/242/149 185/241/149
f 139/267/150 140/270/150 173/229/150 172/228/150
f 153/269/151 154/271/151 187/243/151 186/242/151
f 140/270/152 141/272/152 174/230/152 173/229/152
f 154/271/153 155/273/153 188/244/153 187/243/153
f 141/272/154 142/274/154 175/231/154 174/230/154
f 155/273/155 156/275/155 189/245/155 188/244/155
f 142/274/156 143/276/156 176/232/156 175/231/156
f 156/275/157 157/277/157 190/246/157 189/245/157
f 143/276/158 144/278/158 177/233/158 176/232/158
f 157/277/159 158/279/159 191/247/159 190/246/159
f 144/278/160 145/280/160 178/234/160 177/233/160
f 158/279/161 159/281/161 192/248/161 191/247/161
f 145/280/162 146/282/162 179/235/162 178/234/162
f 159/281/163 160/283/163 193/249/163 192/248/163
f 146/282/164 147/284/164 180/236/164 179/235/164
f 133/268/165 134/184/165 167/187/165 166/224/165
f 160/283/166 161/254/166 194/250/166 193/249/166
f 147/284/167 148/256/167 181/237/167 180/236/167
