# Blender v2.80 (sub 75) OBJ File: 'PLANT_STUFF.blend'
# www.blender.org
mtllib Leaf.mtl
o Leaf_Cube.006
v 0.087608 2.477448 0.872174
v 0.095973 2.561910 0.823409
v 0.079955 2.396778 0.732449
v 0.095973 2.480899 0.683882
v 0.095973 2.312657 0.781017
v 0.070461 2.312657 0.781017
v 0.070461 2.480899 0.683882
v 0.087608 2.396778 0.732449
v 0.072074 2.348211 0.648328
v 0.079955 2.526212 0.956635
v 0.095973 2.348211 0.648328
v 0.087608 2.526212 0.956635
v 0.070461 2.328110 0.865471
v 0.070461 2.546313 0.739492
v 0.095973 2.546313 0.739492
v 0.095973 2.328110 0.865471
v 0.087608 2.437211 0.802482
v 0.079955 2.437211 0.802482
v 0.070461 2.561910 0.823409
v 0.070461 2.392986 0.920938
v 0.095973 2.392986 0.920938
v 0.079955 2.477448 0.872174
vt 0.284390 0.920812
vt 0.285271 0.921601
vt 0.284203 0.922559
vt 0.283011 0.922048
vt 0.304110 0.920909
vt 0.307379 0.920909
vt 0.307379 0.922080
vt 0.304110 0.922080
vt 0.276597 0.920812
vt 0.277478 0.920022
vt 0.278545 0.920979
vt 0.277976 0.922048
vt 0.282442 0.920972
vt 0.283505 0.920018
vt 0.284568 0.919065
vt 0.285769 0.919576
vt 0.300842 0.919067
vt 0.300842 0.920227
vt 0.297574 0.920227
vt 0.297574 0.919067
vt 0.321524 0.913551
vt 0.321524 0.916480
vt 0.320505 0.916468
vt 0.320505 0.913539
vt 0.275218 0.919576
vt 0.276410 0.919065
vt 0.286338 0.920644
vt 0.278545 0.919065
vt 0.286338 0.922558
vt 0.304110 0.919067
vt 0.307379 0.919067
vt 0.300842 0.922085
vt 0.297574 0.922085
vt 0.326182 0.892185
vt 0.328240 0.892184
vt 0.328240 0.895114
vt 0.326182 0.895114
vt 0.282442 0.919065
vt 0.318447 0.916460
vt 0.318447 0.913531
vt 0.275712 0.921605
vt 0.276775 0.922559
vt 0.274649 0.922559
vt 0.274649 0.920652
vt 0.329237 0.892183
vt 0.329237 0.895113
vn -0.9963 -0.0808 0.0294
vn 0.0000 -0.9837 0.1800
vn 0.9971 0.0580 -0.0487
vn -0.9963 -0.0659 0.0555
vn -0.9963 0.0810 -0.0293
vn 0.0000 0.9832 -0.1827
vn 0.0000 0.6477 -0.7619
vn 0.9971 -0.0712 0.0259
vn -0.9963 0.0658 -0.0553
vn 0.9963 -0.0740 0.0427
vn -0.9953 -0.0839 0.0484
vn 0.0000 -0.9659 -0.2588
vn 0.0000 0.9659 0.2588
vn 0.0000 -0.2588 0.9659
vn -0.9920 -0.0437 0.1182
vn -0.9953 0.0839 -0.0484
vn 0.0000 0.2588 -0.9659
vn 0.9927 0.1168 0.0313
vn 0.9963 0.0740 -0.0427
vn 0.9971 0.0714 -0.0258
vn -0.9920 0.1242 0.0212
vn 0.9971 -0.0581 0.0489
vn 0.9927 -0.0313 0.1168
vn 0.0000 -0.6498 0.7601
usemtl Atlas.004
s off
f 18/1/1 22/2/1 19/3/1 14/4/1
f 6/5/2 5/6/2 16/7/2 13/8/2
f 17/9/3 1/10/3 21/11/3 16/12/3
f 7/13/4 3/14/4 18/1/4 14/4/4
f 3/14/5 6/15/5 13/16/5 18/1/5
f 14/17/6 19/18/6 2/19/6 15/20/6
f 14/21/7 15/22/7 4/23/7 7/24/7
f 15/25/8 2/26/8 1/10/8 17/9/8
f 13/16/9 20/27/9 22/2/9 18/1/9
f 1/10/10 2/26/10 12/28/10
f 19/3/11 22/2/11 10/29/11
f 9/30/12 11/31/12 5/6/12 6/5/12
f 2/19/13 19/18/13 10/32/13 12/33/13
f 10/34/14 20/35/14 21/36/14 12/37/14
f 9/38/15 3/14/15 7/13/15
f 22/2/16 20/27/16 10/29/16
f 7/24/17 4/23/17 11/39/17 9/40/17
f 8/41/18 5/42/18 11/43/18
f 21/11/19 1/10/19 12/28/19
f 16/12/20 5/42/20 8/41/20 17/9/20
f 9/38/21 6/15/21 3/14/21
f 8/41/22 4/44/22 15/25/22 17/9/22
f 11/43/23 4/44/23 8/41/23
f 21/36/24 20/35/24 13/45/24 16/46/24
